<svg xmlns="http://www.w3.org/2000/svg" viewBox="0 0 242 191"><defs><style>.cls-1{fill:#fff;}</style></defs><title>logo</title><g id="Capa_2" data-name="Capa 2"><g id="Capa_1-2" data-name="Capa 1"><path class="cls-1" d="M95.16,155.52a48,48,0,0,1-9.54-1.15c-1.56-.3-3.09-.78-4.6-1.21-.75-.25-1.49-.54-2.24-.79l-1.11-.4-1.09-.47-2.16-.94-2.1-1.07c-1.42-.66-2.75-1.53-4.09-2.32-.68-.39-1.33-.84-2-1.29l-1.94-1.33c-.66-.42-1.25-1-1.87-1.42l-1.85-1.46c-.63-.46-1.19-1-1.79-1.54L57,138.56c-.6-.5-1.15-1.08-1.71-1.64l-1.67-1.68c-1.14-1.07-2.16-2.3-3.22-3.47L48.86,130c-.51-.6-1-1.24-1.49-1.85-1-1.25-2-2.45-3-3.73l-2.79-3.89-.71-1c-.23-.33-.44-.67-.66-1l-1.31-2-1.32-2c-.44-.67-.87-1.34-1.27-2-.81-1.39-1.64-2.76-2.46-4.14-.41-.7-.84-1.37-1.22-2.08l-1.15-2.13c-.76-1.42-1.52-2.84-2.3-4.25S27.77,97,27,95.57l-2.15-4.35-2-4.43-2-4.43L19,77.86,17,73.36c-.33-.75-.62-1.51-.9-2.27l-.9-2.28-1.79-4.57L12.55,62l-.84-2.3L10,55h.35c1.87,0,3.75,0,5.63,0l2.82,0c.94,0,1.88,0,2.82.05,1.88,0,3.76.12,5.64.19l2.82.16c.95,0,1.88.11,2.83.18,1.88.12,3.75.31,5.64.48l2.82.33c.94.09,1.87.25,2.81.38s1.89.24,2.82.44,1.88.35,2.82.51c-.86-.4-1.74-.8-2.62-1.18s-1.78-.72-2.68-1.08-1.8-.69-2.72-1-1.83-.61-2.75-.89l-2.78-.79c-.93-.28-1.87-.49-2.81-.73s-1.87-.47-2.81-.67l-2.84-.6L25,50.26c-.95-.19-1.9-.32-2.85-.48s-1.91-.31-2.86-.45-1.91-.29-2.87-.4c-1.92-.24-3.83-.46-5.76-.65-1-.11-1.93-.18-2.89-.26s-1.92-.14-2.94-.19L0,47.57l1.3,5C2.14,55.78,3,59,3.92,62.23l.67,2.42L5.36,67l1.53,4.79c1,3.21,2.17,6.35,3.34,9.5.58,1.58,1.15,3.16,1.77,4.73l2,4.65c.66,1.55,1.3,3.11,2,4.66l2.21,4.57c.75,1.51,1.44,3,2.24,4.55L22.84,109l1.22,2.23c.41.74.88,1.46,1.31,2.19l2.68,4.35c.43.73.92,1.43,1.41,2.13L30.92,122l1.46,2.1c.25.35.49.71.74,1.05l.79,1,3.18,4c1.08,1.34,2.27,2.6,3.39,3.9.58.64,1.13,1.29,1.73,1.91l1.85,1.82c1.23,1.21,2.42,2.46,3.76,3.57l2,1.7c.65.57,1.3,1.14,2,1.65l2.08,1.56c.71.51,1.37,1.07,2.11,1.53l2.2,1.42c.74.45,1.45,1,2.23,1.36l2.29,1.26,1.15.62c.38.21.79.37,1.19.56,1.59.71,3.15,1.47,4.81,2,.83.3,1.64.61,2.46.89l2.52.71,1.25.35,1.28.26c.86.18,1.7.37,2.56.51,1.72.22,3.43.48,5.16.54l1.29.07h1.3c.86,0,1.72,0,2.58-.07a43.36,43.36,0,0,0,5.09-.6,37.39,37.39,0,0,0,4.93-1.23,26.82,26.82,0,0,0,4.65-1.94A39,39,0,0,1,95.16,155.52Z"/><path class="cls-1" d="M117.21,41.45c-.27-.93-.63-1.82-.95-2.73s-.67-1.81-1.06-2.69-.75-1.78-1.14-2.66l-1.23-2.62c-.41-.88-.87-1.72-1.31-2.58s-.87-1.73-1.35-2.57l-1.41-2.53-1.46-2.49c-.48-.84-1-1.65-1.51-2.47s-1-1.64-1.55-2.45-1-1.62-1.59-2.42c-1.08-1.6-2.17-3.19-3.3-4.76-.55-.8-1.13-1.57-1.71-2.35s-1.16-1.54-1.79-2.34L92.88,0,90,4.25C88.11,7,86.28,9.81,84.43,12.6l-1.38,2.1-1.3,2.15-2.59,4.31c-1.79,2.84-3.35,5.82-5,8.77-.8,1.48-1.62,3-2.38,4.45l-2.21,4.55c-.73,1.52-1.48,3-2.2,4.55l-2,4.67c-.65,1.56-1.36,3.1-2,4.69l-1.75,4.77L60.84,60c-.29.8-.52,1.62-.78,2.43l-1.51,4.88c-.27.81-.48,1.64-.68,2.47l-.62,2.49-.62,2.48c-.1.42-.22.83-.31,1.25l-.24,1.26-.95,5.06c-.29,1.69-.46,3.41-.7,5.11-.1.86-.23,1.71-.3,2.57L54,92.58c-.09,1.73-.25,3.44-.2,5.19v2.59c0,.87,0,1.73.09,2.6l.19,2.6c.08.87.09,1.73.24,2.6l.39,2.58c.14.86.22,1.72.43,2.58l.57,2.55.28,1.28c.1.42.25.83.37,1.25.52,1.67,1,3.35,1.64,5,.32.81.61,1.63,1,2.43l1.12,2.37.57,1.17.64,1.14c.43.76.85,1.52,1.3,2.25,1,1.45,1.9,2.91,3,4.25l.8,1c.28.33.57.65.86,1,.58.64,1.12,1.3,1.74,1.89a45.84,45.84,0,0,0,3.81,3.44,35.85,35.85,0,0,0,4.18,2.9,25.94,25.94,0,0,0,4.52,2.22,39.1,39.1,0,0,1-7.16-6.72,47.62,47.62,0,0,1-5.42-7.94c-.8-1.37-1.44-2.83-2.11-4.25-.31-.73-.58-1.48-.88-2.21l-.44-1.1-.36-1.12-.72-2.25-.58-2.29c-.43-1.5-.65-3.07-.94-4.61a22.14,22.14,0,0,1-.33-2.33l-.28-2.33c-.12-.78-.11-1.57-.16-2.35L62,107.56c-.07-.77,0-1.57,0-2.36l0-2.36a23.43,23.43,0,0,1,.11-2.36l.16-2.36c.06-1.57.31-3.14.5-4.71L63,91.05c.12-.78.29-1.56.42-2.34.29-1.57.51-3.14.86-4.69l1.08-4.66.26-1.16c.1-.39.22-.78.32-1.16l.65-2.31.65-2.31c.21-.78.42-1.55.69-2.3.52-1.53,1-3.06,1.5-4.59.25-.76.47-1.53.75-2.28L71.05,61c.57-1.51,1.14-3,1.69-4.53s1.22-3,1.82-4.49l1.86-4.49,2-4.43,2-4.44,2.14-4.39,2.13-4.4c.35-.74.73-1.46,1.12-2.18l1.12-2.17,2.26-4.36,1.12-2.17,1.18-2.16,2.38-4.34.23.26q1.91,2.09,3.73,4.22l1.84,2.14c.61.72,1.22,1.43,1.82,2.16,1.2,1.45,2.38,2.91,3.57,4.37l1.74,2.23c.59.73,1.15,1.49,1.72,2.24,1.15,1.5,2.24,3,3.35,4.57L113.48,37c.55.78,1,1.58,1.57,2.38s1.06,1.58,1.52,2.41,1,1.64,1.48,2.46C117.78,43.28,117.5,42.36,117.21,41.45Z"/><path class="cls-1" d="M187.87,39c-3.32.38-6.64.81-10,1.22l-2.49.32-2.48.41-5,.83c-3.32.5-6.6,1.25-9.89,1.95-1.64.35-3.29.69-4.92,1.08l-4.9,1.28c-1.62.44-3.26.85-4.88,1.3l-4.84,1.53c-1.61.53-3.23,1-4.83,1.57L129,52.25l-2.38.9c-.8.29-1.57.66-2.36,1l-4.69,2c-.78.33-1.55.71-2.31,1.1l-2.29,1.15-2.29,1.14-1.15.58-1.12.63-4.45,2.58c-1.48.87-2.89,1.87-4.34,2.8-.72.47-1.44.93-2.14,1.44l-2.07,1.56c-1.37,1.05-2.78,2.05-4.07,3.21l-2,1.71c-.66.57-1.31,1.13-1.92,1.76l-1.85,1.84c-.6.62-1.25,1.19-1.81,1.87l-1.71,2c-.56.67-1.17,1.29-1.67,2l-1.58,2.09-.78,1c-.26.35-.48.73-.72,1.1-.93,1.48-1.91,2.91-2.7,4.48-.41.77-.84,1.52-1.23,2.3L74.3,96.9l-.52,1.2-.45,1.22c-.3.82-.6,1.63-.87,2.46-.46,1.68-1,3.33-1.27,5l-.26,1.27c-.07.43-.12.86-.18,1.28-.1.86-.26,1.7-.3,2.56a44.05,44.05,0,0,0-.13,5.13,37.07,37.07,0,0,0,.51,5.06A27.11,27.11,0,0,0,72.09,127a39.14,39.14,0,0,1,.44-9.81A48.29,48.29,0,0,1,75,107.9c.52-1.5,1.21-2.94,1.86-4.38.35-.71.75-1.4,1.1-2.1l.55-1,.62-1,1.24-2,1.36-1.93c.86-1.31,1.91-2.49,2.89-3.71.48-.62,1-1.2,1.55-1.77l1.59-1.73c.51-.6,1.13-1.11,1.69-1.65l1.7-1.63c.55-.56,1.19-1,1.78-1.55l1.81-1.52c.58-.52,1.23-1,1.86-1.45L98.53,79c1.23-1,2.59-1.81,3.9-2.7l2-1.3c.67-.42,1.37-.81,2-1.22,1.38-.79,2.71-1.65,4.12-2.4l4.24-2.2,1.06-.56c.35-.18.72-.34,1.08-.51l2.18-1,2.18-1c.72-.34,1.44-.68,2.2-1,1.49-.6,3-1.23,4.45-1.84.74-.31,1.47-.64,2.23-.92l2.27-.82c1.51-.56,3-1.1,4.54-1.68s3.06-1,4.59-1.53l4.62-1.51,4.67-1.37,4.67-1.37,4.73-1.23L165,51.6c.79-.21,1.58-.39,2.38-.57l2.39-.56,4.77-1.12,2.38-.56,2.41-.51,4.84-1-.05.34q-.34,2.79-.77,5.58L182.93,56c-.14.93-.3,1.85-.46,2.78-.31,1.86-.66,3.7-1,5.56l-.56,2.77c-.17.93-.39,1.84-.59,2.76-.38,1.85-.84,3.68-1.28,5.52l-.73,2.74c-.23.92-.52,1.82-.78,2.74s-.51,1.83-.84,2.72-.61,1.81-.91,2.72c.52-.8,1-1.61,1.55-2.42s1-1.66,1.45-2.5.94-1.69,1.35-2.55.87-1.73,1.28-2.6l1.19-2.64c.4-.88.74-1.78,1.11-2.67s.74-1.79,1.07-2.69l1-2.72,1-2.74c.32-.91.59-1.83.89-2.75s.58-1.84.85-2.77.55-1.85.8-2.78q.78-2.79,1.47-5.61c.24-.93.45-1.88.67-2.82s.41-1.89.61-2.89l.95-4.72Z"/><path class="cls-1" d="M107.93,116.55h6.95v41.7h-6.95Z"/><path class="cls-1" d="M121.82,116.55h9c4.87,0,8.39.43,10.54,1.27a10.51,10.51,0,0,1,5.1,4.08,12,12,0,0,1,1.86,6.76,10.86,10.86,0,0,1-2.44,7.26,12.71,12.71,0,0,1-6.63,4,40.41,40.41,0,0,1-9,.65v17.66h-8.5Zm8.5,16.3H133a15.77,15.77,0,0,0,4.43-.42,4,4,0,0,0,2-1.41,4,4,0,0,0,.71-2.37,3.75,3.75,0,0,0-2-3.53q-1.45-.83-5.4-.83h-2.4Z"/><path class="cls-1" d="M153.48,116.55h7.75v26.31a13.56,13.56,0,0,0,.6,4.81,4.77,4.77,0,0,0,1.95,2.25,6.18,6.18,0,0,0,3.3.84,6.35,6.35,0,0,0,3.51-.94,4.88,4.88,0,0,0,2-2.39,17.66,17.66,0,0,0,.57-5.54V116.55H181V140.8a35.2,35.2,0,0,1-.69,8.52,12,12,0,0,1-2.64,4.59,12.14,12.14,0,0,1-4.48,3.28,15.12,15.12,0,0,1-5.9,1.06,14.2,14.2,0,0,1-7.68-2,11.83,11.83,0,0,1-4.67-5.09c-.94-2-1.41-5.48-1.41-10.33Z"/><path class="cls-1" d="M188.41,116.55h6.77v41.7h-6.77Z"/><path class="cls-1" d="M240.49,124.48l-5.29,5q-5.41-5.72-12.16-5.71a13.3,13.3,0,0,0-13.5,13.5,14.23,14.23,0,0,0,1.73,7.06,12.31,12.31,0,0,0,4.89,4.84,14.07,14.07,0,0,0,7,1.76,14.5,14.5,0,0,0,6-1.23,21.48,21.48,0,0,0,6-4.48l5.13,5.36a28.39,28.39,0,0,1-8.33,6,22.66,22.66,0,0,1-8.94,1.66q-9.28,0-15.18-5.88T202,137.31a20.64,20.64,0,0,1,2.69-10.57,20.05,20.05,0,0,1,7.7-7.44,21.81,21.81,0,0,1,10.8-2.81,22.55,22.55,0,0,1,9.48,2.08A22.84,22.84,0,0,1,240.49,124.48Z"/><path class="cls-1" d="M40.84,166.15h4.73v20.34h6.89V191H40.84Z"/><path class="cls-1" d="M65.08,166.13h4.8L79.44,191H74.52l-1.94-5.12H62.43l-2,5.12H55.49Zm2.43,6.6-3.34,8.53h6.65Z"/><path class="cls-1" d="M91.6,166.13h12.34v4.61H96.3v4.52h7.64v4.54H96.3V191H91.6Z"/><path class="cls-1" d="M108.2,166.1h4.74v20.38h6.9V191H108.2Z"/><path class="cls-1" d="M134.61,166.1a11.8,11.8,0,0,1,8.65,3.64,12.14,12.14,0,0,1,3.62,8.88,12,12,0,0,1-3.57,8.78,12.37,12.37,0,0,1-17.54-.09,12.66,12.66,0,0,1-1.88-15,12.41,12.41,0,0,1,10.72-6.19Zm-.05,4.42a7.42,7.42,0,0,0-5.53,2.29,7.92,7.92,0,0,0-2.24,5.81,7.58,7.58,0,0,0,2.82,6.22,7.75,7.75,0,0,0,5,1.79,7.35,7.35,0,0,0,5.47-2.32,8.35,8.35,0,0,0,0-11.45A7.41,7.41,0,0,0,134.56,170.52Z"/><path class="cls-1" d="M150.9,166.14h5a16.58,16.58,0,0,1,5.87.74,6,6,0,0,1,2.81,2.44,7.47,7.47,0,0,1,1.06,4,6.92,6.92,0,0,1-1.17,4.1,7.19,7.19,0,0,1-3.54,2.49L166.83,191h-5.18l-5.58-10.53h-.44V191H150.9Zm4.73,9.72h1.48a5.83,5.83,0,0,0,3.11-.59,2.23,2.23,0,0,0,.85-2,2.45,2.45,0,0,0-.42-1.42,2.37,2.37,0,0,0-1.13-.86,8.38,8.38,0,0,0-2.59-.26h-1.3Z"/><path class="cls-1" d="M170.75,166.13h13.57v4.63h-8.87v4.5h8.87v4.54h-8.87v6.55h8.87V191H170.75Z"/><path class="cls-1" d="M201.1,170l-3.34,3q-1.75-2.44-3.58-2.45a2.17,2.17,0,0,0-1.45.48,1.38,1.38,0,0,0-.56,1.07,1.81,1.81,0,0,0,.4,1.12,29.72,29.72,0,0,0,3.31,3c1.72,1.44,2.76,2.35,3.12,2.72a9.4,9.4,0,0,1,1.94,2.65,6.47,6.47,0,0,1,.58,2.76,6.31,6.31,0,0,1-2,4.81,7.36,7.36,0,0,1-5.25,1.9,7.85,7.85,0,0,1-4.4-1.24,9.86,9.86,0,0,1-3.21-3.89l3.78-2.29q1.71,3.13,3.93,3.14a2.88,2.88,0,0,0,2-.68,2,2,0,0,0,.79-1.56,2.76,2.76,0,0,0-.59-1.61,18.24,18.24,0,0,0-2.63-2.46,26.45,26.45,0,0,1-5-4.87,6.17,6.17,0,0,1-1.12-3.41,5.6,5.6,0,0,1,1.87-4.23,6.53,6.53,0,0,1,4.63-1.76,7.3,7.3,0,0,1,3.38.82A12.5,12.5,0,0,1,201.1,170Z"/><path class="cls-1" d="M204.39,166.16h13.73v4.66H213.6V191h-4.8V170.82h-4.41Z"/><path class="cls-1" d="M227.63,166.13h4.81L242,191h-4.92l-1.94-5.12H225L223,191h-4.92Zm2.44,6.59-3.34,8.54h6.65Z"/></g></g></svg>